<svg xmlns="http://www.w3.org/2000/svg" width="10.99" height="10.99" viewBox="0 0 10.99 10.99">
  <g id="btn_menu_pencil__777777" data-name="btn_menu_pencil_#777777" transform="translate(-0.07 -0.07)">
    <path id="패스_6253" data-name="패스 6253" d="M8.715,3.906a.23.23,0,0,0-.163-.068h0a.23.23,0,0,0-.163.068L3.358,8.938a.23.23,0,0,0,0,.326l2.279,2.279a.23.23,0,0,0,.326,0l5.029-5.029a.23.23,0,0,0,0-.325Z" transform="translate(-1.737 -2.033)" fill="#777"/>
    <path id="패스_6254" data-name="패스 6254" d="M1.157,16.721a.231.231,0,0,0-.387.109L.077,19.722a.23.23,0,0,0,.061.217A.234.234,0,0,0,.354,20l2.889-.691a.23.23,0,0,0,.109-.387Z" transform="translate(0 -8.945)" fill="#777"/>
    <path id="패스_6255" data-name="패스 6255" d="M19.306,1.384,18.328.406a1.152,1.152,0,0,0-1.627,0l-.653.653a.23.23,0,0,0,0,.326l2.28,2.28a.23.23,0,0,0,.326,0l.652-.654a1.152,1.152,0,0,0,0-1.626Z" transform="translate(-8.581)" fill="#777"/>
  </g>
</svg>
