<svg xmlns="http://www.w3.org/2000/svg" width="13.029" height="13.334" viewBox="0 0 13.029 13.334">
    <defs>
        <style>
            .cls-1{fill:#777;fill-rule:evenodd}
        </style>
    </defs>
    <g id="ic_abstract_filter__777777" data-name="ic_abstract_filter_#777777" transform="translate(-179.741 -2141)">
        <g id="Group_229" transform="translate(179.741 2141)">
            <g id="filter-1">
                <path id="Shape_661" d="M192.629 2141.683a1.216 1.216 0 0 1-.111 1.308l-4.146 5.641v3.616a1.243 1.243 0 0 1-.521 1l-1.428.856a1.718 1.718 0 0 1-.91.226 1.346 1.346 0 0 1-1-.324 1.232 1.232 0 0 1-.423-.926v-4.455l-4.108-5.647a1.211 1.211 0 0 1-.1-1.3 1.31 1.31 0 0 1 1.159-.677h10.425a1.314 1.314 0 0 1 1.163.682zm-5.7 6.729a.666.666 0 0 1 .132-.4l3.809-5.184a.271.271 0 0 0 .02-.289.291.291 0 0 0-.257-.15h-8.757a.29.29 0 0 0-.256.15.272.272 0 0 0 .019.289l3.77 5.184a.671.671 0 0 1 .13.4v4.056a.284.284 0 0 0 .145.243.318.318 0 0 0 .289 0c.243-.139.536-.307.732-.417l.08-.046a.269.269 0 0 0 .141-.237z" class="cls-1" transform="translate(-179.741 -2141)"/>
            </g>
        </g>
    </g>
</svg>
