<svg xmlns="http://www.w3.org/2000/svg" width="24" height="22.5" viewBox="0 0 24 22.5">
  <g id="Group_313" transform="translate(-432 -2076.75)">
    <g id="Bold_313">
      <path id="Shape_1903" d="M456,2082.25a2,2,0,0,0-2-2h-6a.5.5,0,0,0-.5.5v1.5a.5.5,0,0,1-1,0v-2.5a3,3,0,0,0-6,0v2.5a.5.5,0,0,1-1,0v-1.5a.5.5,0,0,0-.5-.5h-5a2,2,0,0,0-2,2v15a2,2,0,0,0,2,2h20a2,2,0,0,0,2-2Zm-13.5-2.75a1,1,0,1,1,1,1A1,1,0,0,1,442.5,2079.5Zm-8.5,17.25a.5.5,0,0,0,.5.5h19a.5.5,0,0,0,.5-.5v-10.5a.5.5,0,0,0-.5-.5h-19a.5.5,0,0,0-.5.5Z" fill="#fff" fill-rule="evenodd"/>
      <path id="Shape_1904" d="M451.25,2089.5H446.5a.75.75,0,0,0,0,1.5h4.75a.75.75,0,0,0,0-1.5Z" fill="#fff"/>
      <path id="Shape_1905" d="M450,2092.5h-3.5a.75.75,0,0,0,0,1.5H450a.75.75,0,0,0,0-1.5Z" fill="#fff"/>
      <path id="Oval_405" d="M440,2091.75a2,2,0,1,0-2-2A2,2,0,0,0,440,2091.75Z" fill="#fff"/>
      <path id="Shape_1906" d="M440,2092.75a3.6,3.6,0,0,0-3.3,2.32.487.487,0,0,0,.053.46.5.5,0,0,0,.418.22h5.649a.5.5,0,0,0,.418-.22.487.487,0,0,0,.053-.46A3.605,3.605,0,0,0,440,2092.75Z" fill="#fff"/>
    </g>
  </g>
</svg>
