<svg xmlns="http://www.w3.org/2000/svg" id="그룹_7658" width="24.732" height="18.896" data-name="그룹 7658" viewBox="0 0 24.732 18.896">
    <defs>
        <style>
            .cls-1{fill:#e83828}
        </style>
    </defs>
    <g id="그룹_3730" data-name="그룹 3730">
        <path id="패스_2558" d="M4.978 28.354A1.368 1.368 0 0 0 3.624 27h-2.27a1.354 1.354 0 0 0 0 2.708H3.6a1.36 1.36 0 0 0 1.378-1.354z" class="cls-1" data-name="패스 2558" transform="translate(0 -21.624)"/>
        <path id="패스_2559" d="M17.332 2.768A1.334 1.334 0 1 0 16 1.434a1.309 1.309 0 0 0 1.332 1.334z" class="cls-1" data-name="패스 2559" transform="translate(-12.812 -.08)"/>
        <path id="패스_2560" d="M20.07 81.3h-1.016a1.354 1.354 0 0 0 0 2.708h1.016a1.354 1.354 0 0 0 0-2.708z" class="cls-1" data-name="패스 2560" transform="translate(-14.175 -65.111)"/>
        <path id="패스_2561" d="M42.739 0H28.561a1.412 1.412 0 0 0-1.394 1.175A1.347 1.347 0 0 0 28.5 2.688h2.19a1.354 1.354 0 0 1 .02 2.708h-3.722a1.368 1.368 0 0 0-1.354 1.354.253.253 0 0 0 .02.119 1.344 1.344 0 0 0 1.255 1.215h1.871a1.343 1.343 0 0 1 .279 2.609 1.551 1.551 0 0 1-.418.08h-3.107a1.364 1.364 0 0 0-1.334 1.354c0 .08.02.179.02.259a1.36 1.36 0 0 0 1.294 1.1h4.2c.08 0 .159.02.239.02A1.323 1.323 0 0 1 31.03 14.8v.02a1.287 1.287 0 0 1-.358.876.479.479 0 0 1-.159.119 2.025 2.025 0 0 1-.816.3c-.04 0-.08.02-.139.02h-.08a1.165 1.165 0 0 0-.259.04 1.364 1.364 0 0 0-1.055 1.314 1.345 1.345 0 0 0 .04.279 1.382 1.382 0 0 0 1.314 1.075H42.8a1.357 1.357 0 0 0 1.313-1.343V1.374A1.377 1.377 0 0 0 42.739 0z" class="cls-1" data-name="패스 2561" transform="translate(-19.381)"/>
    </g>
    <path id="패스_2562" d="M4.934 54.2a1.334 1.334 0 1 0 1.334 1.334A1.334 1.334 0 0 0 4.934 54.2z" class="cls-1" data-name="패스 2562" transform="translate(-2.883 -43.407)"/>
</svg>
