<svg id="Group_184" xmlns="http://www.w3.org/2000/svg" width="20.432" height="20.432" viewBox="0 0 20.432 20.432">
  <g id="cog">
    <path id="Shape_552" d="M388.57,1705.088h1.585a1.276,1.276,0,0,1,1.277,1.277v1.7a1.264,1.264,0,0,1-.374.9,1.282,1.282,0,0,1-.9.375H388.57a7.55,7.55,0,0,1-.65,1.566l1.121,1.124a1.275,1.275,0,0,1,0,1.8l-1.2,1.2a1.27,1.27,0,0,1-1.806,0l-1.122-1.115a7.981,7.981,0,0,1-1.566.647v1.583a1.276,1.276,0,0,1-1.277,1.277h-1.7a1.276,1.276,0,0,1-1.277-1.277v-1.583a7.967,7.967,0,0,1-1.566-.647l-1.122,1.115a1.3,1.3,0,0,1-1.807,0l-1.2-1.2a1.275,1.275,0,0,1,0-1.8l1.123-1.124a7.553,7.553,0,0,1-.65-1.566h-1.585a1.276,1.276,0,0,1-1.277-1.277v-1.7a1.276,1.276,0,0,1,1.277-1.277h1.585a7.556,7.556,0,0,1,.65-1.566l-1.122-1.124a1.269,1.269,0,0,1-.375-.9,1.284,1.284,0,0,1,.375-.9l1.2-1.2a1.27,1.27,0,0,1,1.806,0l1.122,1.124a7.5,7.5,0,0,1,1.566-.656v-1.583a1.276,1.276,0,0,1,1.277-1.277h1.7a1.276,1.276,0,0,1,1.277,1.277v1.583a7.476,7.476,0,0,1,1.565.656l1.122-1.124a1.27,1.27,0,0,1,1.806,0l1.2,1.2a1.284,1.284,0,0,1,.375.9,1.269,1.269,0,0,1-.375.9l-1.121,1.124A7.553,7.553,0,0,1,388.57,1705.088Zm-11.61,2.128a4.257,4.257,0,1,0,4.257-4.257A4.258,4.258,0,0,0,376.959,1707.216Z" transform="translate(-371 -1697)" fill="#02152a" fill-rule="evenodd"/>
  </g>
</svg>
