<svg id="그룹_4025" data-name="그룹 4025" xmlns="http://www.w3.org/2000/svg" width="29.781" height="22.754" viewBox="0 0 29.781 22.754">
  <path id="패스_2621" data-name="패스 2621" d="M5.994,28.63A1.648,1.648,0,0,0,4.364,27H1.63a1.63,1.63,0,0,0,0,3.261H4.34A1.637,1.637,0,0,0,5.994,28.63Z" transform="translate(0 -20.526)" fill="#777"/>
  <path id="패스_2622" data-name="패스 2622" d="M17.6,3.313A1.606,1.606,0,1,0,16,1.706,1.577,1.577,0,0,0,17.6,3.313Z" transform="translate(-12.162 -0.076)" fill="#777"/>
  <path id="패스_2623" data-name="패스 2623" d="M20.553,81.3H19.33a1.63,1.63,0,0,0,0,3.261h1.223a1.63,1.63,0,0,0,0-3.261Z" transform="translate(-13.456 -61.806)" fill="#777"/>
  <path id="패스_2624" data-name="패스 2624" d="M46.523,0H29.451a1.7,1.7,0,0,0-1.678,1.415,1.621,1.621,0,0,0,1.606,1.822h2.638A1.631,1.631,0,0,1,32.041,6.5H27.557a1.648,1.648,0,0,0-1.63,1.63.3.3,0,0,0,.024.144,1.619,1.619,0,0,0,1.511,1.463h2.254a1.617,1.617,0,0,1,.336,3.141,1.868,1.868,0,0,1-.5.1h-3.74A1.643,1.643,0,0,0,24.2,14.6c0,.1.024.216.024.312a1.638,1.638,0,0,0,1.559,1.319h5.059c.1,0,.192.024.288.024a1.593,1.593,0,0,1,1.295,1.559v.024a1.55,1.55,0,0,1-.432,1.055.577.577,0,0,1-.192.144,2.438,2.438,0,0,1-.983.36c-.048,0-.1.024-.168.024h-.1a1.4,1.4,0,0,0-.312.048,1.642,1.642,0,0,0-1.271,1.583,1.619,1.619,0,0,0,.048.336A1.664,1.664,0,0,0,30.6,22.683H46.595a1.634,1.634,0,0,0,1.583-1.606V1.654A1.658,1.658,0,0,0,46.523,0Z" transform="translate(-18.397)" fill="#777"/>
</svg>
